# xmcd CD database file
#
# Track frame offsets:
#	150
#	14717
#	29200
#	39550
#	56172
#	70167
#	88355
#	104380
#	115105
#	129340
#
# Disc length: 1878 seconds
#
# Revision: 1
# Processed by: cddbd v1.5.1PL2 Copyright (c) Steve Scherf et al.
# Submitted via: CDex 1.51
#
DISCID=9207540a
DTITLE=Warratahs - The only game in town
DYEAR=1991
DGENRE=Country
TTITLE0=Friends with me
TTITLE1=Hands of my heart
TTITLE2=Settin' the woods on fire
TTITLE3=The only game in town
TTITLE4=You're right,I'm left,she's gone
TTITLE5=Burned all of my dreams
TTITLE6=Maureen
TTITLE7=Walk on by
TTITLE8=Driving wheel
TTITLE9=East of Mt. eden
EXTD=YEAR: 1991
EXTT0=
EXTT1=
EXTT2=
EXTT3=
EXTT4=
EXTT5=
EXTT6=
EXTT7=
EXTT8=
EXTT9=
PLAYORDER=
